<svg xmlns="http://www.w3.org/2000/svg" className="notyf-page__dots" width="453px" height="183px" viewBox="0 0 453 183" version="1.1">
  <g id="Page-1" stroke="none" strokeWidth="1" fill="none" fillRule="evenodd" opacity="0.173856431">
    <g id="Desktop" transform="translate(-69.000000, -495.000000)" fill="#FFFFFF">
      <g id="Group-3" transform="translate(69.000000, 495.000000)">
        <g id="Group-2">
          <circle id="Oval-2" cx="121.5" cy="1.5" r="1.5" />
          <circle id="Oval-2-Copy" cx="151.5" cy="1.5" r="1.5" />
          <circle id="Oval-2-Copy-2" cx="181.5" cy="1.5" r="1.5" />
          <circle id="Oval-2-Copy-3" cx="211.5" cy="1.5" r="1.5" />
          <circle id="Oval-2-Copy-4" cx="211.5" cy="31.5" r="1.5" />
          <circle id="Oval-2-Copy-5" cx="181.5" cy="31.5" r="1.5" />
          <circle id="Oval-2-Copy-6" cx="151.5" cy="31.5" r="1.5" />
          <circle id="Oval-2-Copy-7" cx="121.5" cy="31.5" r="1.5" />
          <circle id="Oval-2-Copy-8" cx="121.5" cy="61.5" r="1.5" />
          <circle id="Oval-2-Copy-9" cx="151.5" cy="61.5" r="1.5" />
          <circle id="Oval-2-Copy-10" cx="181.5" cy="61.5" r="1.5" />
          <circle id="Oval-2-Copy-11" cx="211.5" cy="61.5" r="1.5" />
          <circle id="Oval-2-Copy-12" cx="211.5" cy="91.5" r="1.5" />
          <circle id="Oval-2-Copy-13" cx="181.5" cy="91.5" r="1.5" />
          <circle id="Oval-2-Copy-14" cx="151.5" cy="91.5" r="1.5" />
          <circle id="Oval-2-Copy-15" cx="121.5" cy="91.5" r="1.5" />
          <circle id="Oval-2-Copy-27" cx="211.5" cy="121.5" r="1.5" />
          <circle id="Oval-2-Copy-26" cx="181.5" cy="121.5" r="1.5" />
          <circle id="Oval-2-Copy-25" cx="151.5" cy="121.5" r="1.5" />
          <circle id="Oval-2-Copy-24" cx="121.5" cy="121.5" r="1.5" />
          <circle id="Oval-2-Copy-23" cx="121.5" cy="151.5" r="1.5" />
          <circle id="Oval-2-Copy-22" cx="151.5" cy="151.5" r="1.5" />
          <circle id="Oval-2-Copy-21" cx="181.5" cy="151.5" r="1.5" />
          <circle id="Oval-2-Copy-20" cx="211.5" cy="151.5" r="1.5" />
          <circle id="Oval-2-Copy-19" cx="211.5" cy="181.5" r="1.5" />
          <circle id="Oval-2-Copy-18" cx="181.5" cy="181.5" r="1.5" />
          <circle id="Oval-2-Copy-17" cx="151.5" cy="181.5" r="1.5" />
          <circle id="Oval-2-Copy-16" cx="121.5" cy="181.5" r="1.5" />
          <circle id="Oval-2-Copy-55" cx="1.5" cy="1.5" r="1.5" />
          <circle id="Oval-2-Copy-54" cx="31.5" cy="1.5" r="1.5" />
          <circle id="Oval-2-Copy-53" cx="61.5" cy="1.5" r="1.5" />
          <circle id="Oval-2-Copy-52" cx="91.5" cy="1.5" r="1.5" />
          <circle id="Oval-2-Copy-51" cx="91.5" cy="31.5" r="1.5" />
          <circle id="Oval-2-Copy-50" cx="61.5" cy="31.5" r="1.5" />
          <circle id="Oval-2-Copy-49" cx="31.5" cy="31.5" r="1.5" />
          <circle id="Oval-2-Copy-48" cx="1.5" cy="31.5" r="1.5" />
          <circle id="Oval-2-Copy-47" cx="1.5" cy="61.5" r="1.5" />
          <circle id="Oval-2-Copy-46" cx="31.5" cy="61.5" r="1.5" />
          <circle id="Oval-2-Copy-45" cx="61.5" cy="61.5" r="1.5" />
          <circle id="Oval-2-Copy-44" cx="91.5" cy="61.5" r="1.5" />
          <circle id="Oval-2-Copy-43" cx="91.5" cy="91.5" r="1.5" />
          <circle id="Oval-2-Copy-42" cx="61.5" cy="91.5" r="1.5" />
          <circle id="Oval-2-Copy-41" cx="31.5" cy="91.5" r="1.5" />
          <circle id="Oval-2-Copy-40" cx="1.5" cy="91.5" r="1.5" />
          <circle id="Oval-2-Copy-39" cx="91.5" cy="121.5" r="1.5" />
          <circle id="Oval-2-Copy-38" cx="61.5" cy="121.5" r="1.5" />
          <circle id="Oval-2-Copy-37" cx="31.5" cy="121.5" r="1.5" />
          <circle id="Oval-2-Copy-36" cx="1.5" cy="121.5" r="1.5" />
          <circle id="Oval-2-Copy-35" cx="1.5" cy="151.5" r="1.5" />
          <circle id="Oval-2-Copy-34" cx="31.5" cy="151.5" r="1.5" />
          <circle id="Oval-2-Copy-33" cx="61.5" cy="151.5" r="1.5" />
          <circle id="Oval-2-Copy-32" cx="91.5" cy="151.5" r="1.5" />
          <circle id="Oval-2-Copy-31" cx="91.5" cy="181.5" r="1.5" />
          <circle id="Oval-2-Copy-30" cx="61.5" cy="181.5" r="1.5" />
          <circle id="Oval-2-Copy-29" cx="31.5" cy="181.5" r="1.5" />
          <circle id="Oval-2-Copy-28" cx="1.5" cy="181.5" r="1.5" />
        </g>
        <g id="Group-2-Copy" transform="translate(240.000000, 0.000000)">
          <circle id="Oval-2" cx="121.5" cy="1.5" r="1.5" />
          <circle id="Oval-2-Copy" cx="151.5" cy="1.5" r="1.5" />
          <circle id="Oval-2-Copy-2" cx="181.5" cy="1.5" r="1.5" />
          <circle id="Oval-2-Copy-3" cx="211.5" cy="1.5" r="1.5" />
          <circle id="Oval-2-Copy-4" cx="211.5" cy="31.5" r="1.5" />
          <circle id="Oval-2-Copy-5" cx="181.5" cy="31.5" r="1.5" />
          <circle id="Oval-2-Copy-6" cx="151.5" cy="31.5" r="1.5" />
          <circle id="Oval-2-Copy-7" cx="121.5" cy="31.5" r="1.5" />
          <circle id="Oval-2-Copy-8" cx="121.5" cy="61.5" r="1.5" />
          <circle id="Oval-2-Copy-9" cx="151.5" cy="61.5" r="1.5" />
          <circle id="Oval-2-Copy-10" cx="181.5" cy="61.5" r="1.5" />
          <circle id="Oval-2-Copy-11" cx="211.5" cy="61.5" r="1.5" />
          <circle id="Oval-2-Copy-12" cx="211.5" cy="91.5" r="1.5" />
          <circle id="Oval-2-Copy-13" cx="181.5" cy="91.5" r="1.5" />
          <circle id="Oval-2-Copy-14" cx="151.5" cy="91.5" r="1.5" />
          <circle id="Oval-2-Copy-15" cx="121.5" cy="91.5" r="1.5" />
          <circle id="Oval-2-Copy-27" cx="211.5" cy="121.5" r="1.5" />
          <circle id="Oval-2-Copy-26" cx="181.5" cy="121.5" r="1.5" />
          <circle id="Oval-2-Copy-25" cx="151.5" cy="121.5" r="1.5" />
          <circle id="Oval-2-Copy-24" cx="121.5" cy="121.5" r="1.5" />
          <circle id="Oval-2-Copy-23" cx="121.5" cy="151.5" r="1.5" />
          <circle id="Oval-2-Copy-22" cx="151.5" cy="151.5" r="1.5" />
          <circle id="Oval-2-Copy-21" cx="181.5" cy="151.5" r="1.5" />
          <circle id="Oval-2-Copy-20" cx="211.5" cy="151.5" r="1.5" />
          <circle id="Oval-2-Copy-19" cx="211.5" cy="181.5" r="1.5" />
          <circle id="Oval-2-Copy-18" cx="181.5" cy="181.5" r="1.5" />
          <circle id="Oval-2-Copy-17" cx="151.5" cy="181.5" r="1.5" />
          <circle id="Oval-2-Copy-16" cx="121.5" cy="181.5" r="1.5" />
          <circle id="Oval-2-Copy-55" cx="1.5" cy="1.5" r="1.5" />
          <circle id="Oval-2-Copy-54" cx="31.5" cy="1.5" r="1.5" />
          <circle id="Oval-2-Copy-53" cx="61.5" cy="1.5" r="1.5" />
          <circle id="Oval-2-Copy-52" cx="91.5" cy="1.5" r="1.5" />
          <circle id="Oval-2-Copy-51" cx="91.5" cy="31.5" r="1.5" />
          <circle id="Oval-2-Copy-50" cx="61.5" cy="31.5" r="1.5" />
          <circle id="Oval-2-Copy-49" cx="31.5" cy="31.5" r="1.5" />
          <circle id="Oval-2-Copy-48" cx="1.5" cy="31.5" r="1.5" />
          <circle id="Oval-2-Copy-47" cx="1.5" cy="61.5" r="1.5" />
          <circle id="Oval-2-Copy-46" cx="31.5" cy="61.5" r="1.5" />
          <circle id="Oval-2-Copy-45" cx="61.5" cy="61.5" r="1.5" />
          <circle id="Oval-2-Copy-44" cx="91.5" cy="61.5" r="1.5" />
          <circle id="Oval-2-Copy-43" cx="91.5" cy="91.5" r="1.5" />
          <circle id="Oval-2-Copy-42" cx="61.5" cy="91.5" r="1.5" />
          <circle id="Oval-2-Copy-41" cx="31.5" cy="91.5" r="1.5" />
          <circle id="Oval-2-Copy-40" cx="1.5" cy="91.5" r="1.5" />
          <circle id="Oval-2-Copy-39" cx="91.5" cy="121.5" r="1.5" />
          <circle id="Oval-2-Copy-38" cx="61.5" cy="121.5" r="1.5" />
          <circle id="Oval-2-Copy-37" cx="31.5" cy="121.5" r="1.5" />
          <circle id="Oval-2-Copy-36" cx="1.5" cy="121.5" r="1.5" />
          <circle id="Oval-2-Copy-35" cx="1.5" cy="151.5" r="1.5" />
          <circle id="Oval-2-Copy-34" cx="31.5" cy="151.5" r="1.5" />
          <circle id="Oval-2-Copy-33" cx="61.5" cy="151.5" r="1.5" />
          <circle id="Oval-2-Copy-32" cx="91.5" cy="151.5" r="1.5" />
          <circle id="Oval-2-Copy-31" cx="91.5" cy="181.5" r="1.5" />
          <circle id="Oval-2-Copy-30" cx="61.5" cy="181.5" r="1.5" />
          <circle id="Oval-2-Copy-29" cx="31.5" cy="181.5" r="1.5" />
          <circle id="Oval-2-Copy-28" cx="1.5" cy="181.5" r="1.5" />
        </g>
      </g>
    </g>
  </g>
</svg>
