<?xml version="1.0" encoding="UTF-8"?>
<svg width="107px" height="230px" viewBox="0 0 107 230" version="1.1" xmlns="http://www.w3.org/2000/svg" xmlns:xlink="http://www.w3.org/1999/xlink">
    <!-- Generator: Sketch 49.2 (51160) - http://www.bohemiancoding.com/sketch -->
    <defs></defs>
    <g id="Page-1" stroke="none" stroke-width="1" fill="none" fill-rule="evenodd" opacity="0.208899457">
        <g id="Desktop" transform="translate(-816.000000, -1.000000)" fill="#000000">
            <g id="Group-3-Copy-2" transform="translate(869.500000, 98.500000) rotate(-90.000000) translate(-869.500000, -98.500000) translate(737.000000, 45.000000)">
                <g id="Group-2">
                    <ellipse id="Oval-2" cx="71.3028169" cy="0.87704918" rx="1" ry="1"></ellipse>
                    <ellipse id="Oval-2-Copy" cx="88.9084507" cy="0.87704918" rx="1" ry="1"></ellipse>
                    <ellipse id="Oval-2-Copy-2" cx="106.514085" cy="0.87704918" rx="1" ry="1"></ellipse>
                    <ellipse id="Oval-2-Copy-3" cx="124.119718" cy="0.87704918" rx="1" ry="1"></ellipse>
                    <ellipse id="Oval-2-Copy-4" cx="124.119718" cy="18.4180328" rx="1" ry="1"></ellipse>
                    <ellipse id="Oval-2-Copy-5" cx="106.514085" cy="18.4180328" rx="1" ry="1"></ellipse>
                    <ellipse id="Oval-2-Copy-6" cx="88.9084507" cy="18.4180328" rx="1" ry="1"></ellipse>
                    <ellipse id="Oval-2-Copy-7" cx="71.3028169" cy="18.4180328" rx="1" ry="1"></ellipse>
                    <ellipse id="Oval-2-Copy-8" cx="71.3028169" cy="35.9590164" rx="1" ry="1"></ellipse>
                    <ellipse id="Oval-2-Copy-9" cx="88.9084507" cy="35.9590164" rx="1" ry="1"></ellipse>
                    <ellipse id="Oval-2-Copy-10" cx="106.514085" cy="35.9590164" rx="1" ry="1"></ellipse>
                    <ellipse id="Oval-2-Copy-11" cx="124.119718" cy="35.9590164" rx="1" ry="1"></ellipse>
                    <ellipse id="Oval-2-Copy-12" cx="124.119718" cy="53.5" rx="1" ry="1"></ellipse>
                    <ellipse id="Oval-2-Copy-13" cx="106.514085" cy="53.5" rx="1" ry="1"></ellipse>
                    <ellipse id="Oval-2-Copy-14" cx="88.9084507" cy="53.5" rx="1" ry="1"></ellipse>
                    <ellipse id="Oval-2-Copy-15" cx="71.3028169" cy="53.5" rx="1" ry="1"></ellipse>
                    <ellipse id="Oval-2-Copy-27" cx="124.119718" cy="71.0409836" rx="1" ry="1"></ellipse>
                    <ellipse id="Oval-2-Copy-26" cx="106.514085" cy="71.0409836" rx="1" ry="1"></ellipse>
                    <ellipse id="Oval-2-Copy-25" cx="88.9084507" cy="71.0409836" rx="1" ry="1"></ellipse>
                    <ellipse id="Oval-2-Copy-24" cx="71.3028169" cy="71.0409836" rx="1" ry="1"></ellipse>
                    <ellipse id="Oval-2-Copy-23" cx="71.3028169" cy="88.5819672" rx="1" ry="1"></ellipse>
                    <ellipse id="Oval-2-Copy-22" cx="88.9084507" cy="88.5819672" rx="1" ry="1"></ellipse>
                    <ellipse id="Oval-2-Copy-21" cx="106.514085" cy="88.5819672" rx="1" ry="1"></ellipse>
                    <ellipse id="Oval-2-Copy-20" cx="124.119718" cy="88.5819672" rx="1" ry="1"></ellipse>
                    <ellipse id="Oval-2-Copy-19" cx="124.119718" cy="106.122951" rx="1" ry="1"></ellipse>
                    <ellipse id="Oval-2-Copy-18" cx="106.514085" cy="106.122951" rx="1" ry="1"></ellipse>
                    <ellipse id="Oval-2-Copy-17" cx="88.9084507" cy="106.122951" rx="1" ry="1"></ellipse>
                    <ellipse id="Oval-2-Copy-16" cx="71.3028169" cy="106.122951" rx="1" ry="1"></ellipse>
                    <ellipse id="Oval-2-Copy-55" cx="0.88028169" cy="0.87704918" rx="1" ry="1"></ellipse>
                    <ellipse id="Oval-2-Copy-54" cx="18.4859155" cy="0.87704918" rx="1" ry="1"></ellipse>
                    <ellipse id="Oval-2-Copy-53" cx="36.0915493" cy="0.87704918" rx="1" ry="1"></ellipse>
                    <ellipse id="Oval-2-Copy-52" cx="53.6971831" cy="0.87704918" rx="1" ry="1"></ellipse>
                    <ellipse id="Oval-2-Copy-51" cx="53.6971831" cy="18.4180328" rx="1" ry="1"></ellipse>
                    <ellipse id="Oval-2-Copy-50" cx="36.0915493" cy="18.4180328" rx="1" ry="1"></ellipse>
                    <ellipse id="Oval-2-Copy-49" cx="18.4859155" cy="18.4180328" rx="1" ry="1"></ellipse>
                    <ellipse id="Oval-2-Copy-48" cx="0.88028169" cy="18.4180328" rx="1" ry="1"></ellipse>
                    <ellipse id="Oval-2-Copy-47" cx="0.88028169" cy="35.9590164" rx="1" ry="1"></ellipse>
                    <ellipse id="Oval-2-Copy-46" cx="18.4859155" cy="35.9590164" rx="1" ry="1"></ellipse>
                    <ellipse id="Oval-2-Copy-45" cx="36.0915493" cy="35.9590164" rx="1" ry="1"></ellipse>
                    <ellipse id="Oval-2-Copy-44" cx="53.6971831" cy="35.9590164" rx="1" ry="1"></ellipse>
                    <ellipse id="Oval-2-Copy-43" cx="53.6971831" cy="53.5" rx="1" ry="1"></ellipse>
                    <ellipse id="Oval-2-Copy-42" cx="36.0915493" cy="53.5" rx="1" ry="1"></ellipse>
                    <ellipse id="Oval-2-Copy-41" cx="18.4859155" cy="53.5" rx="1" ry="1"></ellipse>
                    <ellipse id="Oval-2-Copy-40" cx="0.88028169" cy="53.5" rx="1" ry="1"></ellipse>
                    <ellipse id="Oval-2-Copy-39" cx="53.6971831" cy="71.0409836" rx="1" ry="1"></ellipse>
                    <ellipse id="Oval-2-Copy-38" cx="36.0915493" cy="71.0409836" rx="1" ry="1"></ellipse>
                    <ellipse id="Oval-2-Copy-37" cx="18.4859155" cy="71.0409836" rx="1" ry="1"></ellipse>
                    <ellipse id="Oval-2-Copy-36" cx="0.88028169" cy="71.0409836" rx="1" ry="1"></ellipse>
                    <ellipse id="Oval-2-Copy-35" cx="0.88028169" cy="88.5819672" rx="1" ry="1"></ellipse>
                    <ellipse id="Oval-2-Copy-34" cx="18.4859155" cy="88.5819672" rx="1" ry="1"></ellipse>
                    <ellipse id="Oval-2-Copy-33" cx="36.0915493" cy="88.5819672" rx="1" ry="1"></ellipse>
                    <ellipse id="Oval-2-Copy-32" cx="53.6971831" cy="88.5819672" rx="1" ry="1"></ellipse>
                    <ellipse id="Oval-2-Copy-31" cx="53.6971831" cy="106.122951" rx="1" ry="1"></ellipse>
                    <ellipse id="Oval-2-Copy-30" cx="36.0915493" cy="106.122951" rx="1" ry="1"></ellipse>
                    <ellipse id="Oval-2-Copy-29" cx="18.4859155" cy="106.122951" rx="1" ry="1"></ellipse>
                    <ellipse id="Oval-2-Copy-28" cx="0.88028169" cy="106.122951" rx="1" ry="1"></ellipse>
                </g>
                <g id="Group-2-Copy" transform="translate(140.000000, 0.000000)">
                    <ellipse id="Oval-2" cx="71.3028169" cy="0.87704918" rx="1" ry="1"></ellipse>
                    <ellipse id="Oval-2-Copy" cx="88.9084507" cy="0.87704918" rx="1" ry="1"></ellipse>
                    <ellipse id="Oval-2-Copy-6" cx="88.9084507" cy="18.4180328" rx="1" ry="1"></ellipse>
                    <ellipse id="Oval-2-Copy-7" cx="71.3028169" cy="18.4180328" rx="1" ry="1"></ellipse>
                    <ellipse id="Oval-2-Copy-8" cx="71.3028169" cy="35.9590164" rx="1" ry="1"></ellipse>
                    <ellipse id="Oval-2-Copy-9" cx="88.9084507" cy="35.9590164" rx="1" ry="1"></ellipse>
                    <ellipse id="Oval-2-Copy-14" cx="88.9084507" cy="53.5" rx="1" ry="1"></ellipse>
                    <ellipse id="Oval-2-Copy-15" cx="71.3028169" cy="53.5" rx="1" ry="1"></ellipse>
                    <ellipse id="Oval-2-Copy-25" cx="88.9084507" cy="71.0409836" rx="1" ry="1"></ellipse>
                    <ellipse id="Oval-2-Copy-24" cx="71.3028169" cy="71.0409836" rx="1" ry="1"></ellipse>
                    <ellipse id="Oval-2-Copy-23" cx="71.3028169" cy="88.5819672" rx="1" ry="1"></ellipse>
                    <ellipse id="Oval-2-Copy-22" cx="88.9084507" cy="88.5819672" rx="1" ry="1"></ellipse>
                    <ellipse id="Oval-2-Copy-17" cx="88.9084507" cy="106.122951" rx="1" ry="1"></ellipse>
                    <ellipse id="Oval-2-Copy-16" cx="71.3028169" cy="106.122951" rx="1" ry="1"></ellipse>
                    <ellipse id="Oval-2-Copy-55" cx="0.88028169" cy="0.87704918" rx="1" ry="1"></ellipse>
                    <ellipse id="Oval-2-Copy-54" cx="18.4859155" cy="0.87704918" rx="1" ry="1"></ellipse>
                    <ellipse id="Oval-2-Copy-53" cx="36.0915493" cy="0.87704918" rx="1" ry="1"></ellipse>
                    <ellipse id="Oval-2-Copy-52" cx="53.6971831" cy="0.87704918" rx="1" ry="1"></ellipse>
                    <ellipse id="Oval-2-Copy-51" cx="53.6971831" cy="18.4180328" rx="1" ry="1"></ellipse>
                    <ellipse id="Oval-2-Copy-50" cx="36.0915493" cy="18.4180328" rx="1" ry="1"></ellipse>
                    <ellipse id="Oval-2-Copy-49" cx="18.4859155" cy="18.4180328" rx="1" ry="1"></ellipse>
                    <ellipse id="Oval-2-Copy-48" cx="0.88028169" cy="18.4180328" rx="1" ry="1"></ellipse>
                    <ellipse id="Oval-2-Copy-47" cx="0.88028169" cy="35.9590164" rx="1" ry="1"></ellipse>
                    <ellipse id="Oval-2-Copy-46" cx="18.4859155" cy="35.9590164" rx="1" ry="1"></ellipse>
                    <ellipse id="Oval-2-Copy-45" cx="36.0915493" cy="35.9590164" rx="1" ry="1"></ellipse>
                    <ellipse id="Oval-2-Copy-44" cx="53.6971831" cy="35.9590164" rx="1" ry="1"></ellipse>
                    <ellipse id="Oval-2-Copy-43" cx="53.6971831" cy="53.5" rx="1" ry="1"></ellipse>
                    <ellipse id="Oval-2-Copy-42" cx="36.0915493" cy="53.5" rx="1" ry="1"></ellipse>
                    <ellipse id="Oval-2-Copy-41" cx="18.4859155" cy="53.5" rx="1" ry="1"></ellipse>
                    <ellipse id="Oval-2-Copy-40" cx="0.88028169" cy="53.5" rx="1" ry="1"></ellipse>
                    <ellipse id="Oval-2-Copy-39" cx="53.6971831" cy="71.0409836" rx="1" ry="1"></ellipse>
                    <ellipse id="Oval-2-Copy-38" cx="36.0915493" cy="71.0409836" rx="1" ry="1"></ellipse>
                    <ellipse id="Oval-2-Copy-37" cx="18.4859155" cy="71.0409836" rx="1" ry="1"></ellipse>
                    <ellipse id="Oval-2-Copy-36" cx="0.88028169" cy="71.0409836" rx="1" ry="1"></ellipse>
                    <ellipse id="Oval-2-Copy-35" cx="0.88028169" cy="88.5819672" rx="1" ry="1"></ellipse>
                    <ellipse id="Oval-2-Copy-34" cx="18.4859155" cy="88.5819672" rx="1" ry="1"></ellipse>
                    <ellipse id="Oval-2-Copy-33" cx="36.0915493" cy="88.5819672" rx="1" ry="1"></ellipse>
                    <ellipse id="Oval-2-Copy-32" cx="53.6971831" cy="88.5819672" rx="1" ry="1"></ellipse>
                    <ellipse id="Oval-2-Copy-31" cx="53.6971831" cy="106.122951" rx="1" ry="1"></ellipse>
                    <ellipse id="Oval-2-Copy-30" cx="36.0915493" cy="106.122951" rx="1" ry="1"></ellipse>
                    <ellipse id="Oval-2-Copy-29" cx="18.4859155" cy="106.122951" rx="1" ry="1"></ellipse>
                    <ellipse id="Oval-2-Copy-28" cx="0.88028169" cy="106.122951" rx="1" ry="1"></ellipse>
                </g>
            </g>
        </g>
    </g>
</svg>