<?xml version="1.0" encoding="UTF-8"?>
<svg width="65px" height="161px" viewBox="0 0 65 161" version="1.1" xmlns="http://www.w3.org/2000/svg" xmlns:xlink="http://www.w3.org/1999/xlink">
    <!-- Generator: Sketch 49.2 (51160) - http://www.bohemiancoding.com/sketch -->
    <title>Group 3 Copy 3</title>
    <desc>Created with Sketch.</desc>
    <defs></defs>
    <g id="Page-1" stroke="none" stroke-width="1" fill="none" fill-rule="evenodd" opacity="0.622678895">
        <g id="Desktop" transform="translate(-263.000000, -225.000000)" fill="#000000">
            <g id="Group-3-Copy-3" transform="translate(295.500000, 305.500000) rotate(-90.000000) translate(-295.500000, -305.500000) translate(215.000000, 273.000000)">
                <g id="Group-2">
                    <ellipse id="Oval-2" cx="43.3521127" cy="0.532786885" rx="1" ry="1"></ellipse>
                    <ellipse id="Oval-2-Copy" cx="54.056338" cy="0.532786885" rx="1" ry="1"></ellipse>
                    <ellipse id="Oval-2-Copy-2" cx="64.7605634" cy="0.532786885" rx="1" ry="1"></ellipse>
                    <ellipse id="Oval-2-Copy-3" cx="75.4647887" cy="0.532786885" rx="1" ry="1"></ellipse>
                    <ellipse id="Oval-2-Copy-4" cx="75.4647887" cy="11.1885246" rx="1" ry="1"></ellipse>
                    <ellipse id="Oval-2-Copy-5" cx="64.7605634" cy="11.1885246" rx="1" ry="1"></ellipse>
                    <ellipse id="Oval-2-Copy-6" cx="54.056338" cy="11.1885246" rx="1" ry="1"></ellipse>
                    <ellipse id="Oval-2-Copy-7" cx="43.3521127" cy="11.1885246" rx="1" ry="1"></ellipse>
                    <ellipse id="Oval-2-Copy-8" cx="43.3521127" cy="21.8442623" rx="1" ry="1"></ellipse>
                    <ellipse id="Oval-2-Copy-9" cx="54.056338" cy="21.8442623" rx="1" ry="1"></ellipse>
                    <ellipse id="Oval-2-Copy-10" cx="64.7605634" cy="21.8442623" rx="1" ry="1"></ellipse>
                    <ellipse id="Oval-2-Copy-11" cx="75.4647887" cy="21.8442623" rx="1" ry="1"></ellipse>
                    <ellipse id="Oval-2-Copy-12" cx="75.4647887" cy="32.5" rx="1" ry="1"></ellipse>
                    <ellipse id="Oval-2-Copy-13" cx="64.7605634" cy="32.5" rx="1" ry="1"></ellipse>
                    <ellipse id="Oval-2-Copy-14" cx="54.056338" cy="32.5" rx="1" ry="1"></ellipse>
                    <ellipse id="Oval-2-Copy-15" cx="43.3521127" cy="32.5" rx="1" ry="1"></ellipse>
                    <ellipse id="Oval-2-Copy-27" cx="75.4647887" cy="43.1557377" rx="1" ry="1"></ellipse>
                    <ellipse id="Oval-2-Copy-26" cx="64.7605634" cy="43.1557377" rx="1" ry="1"></ellipse>
                    <ellipse id="Oval-2-Copy-25" cx="54.056338" cy="43.1557377" rx="1" ry="1"></ellipse>
                    <ellipse id="Oval-2-Copy-24" cx="43.3521127" cy="43.1557377" rx="1" ry="1"></ellipse>
                    <ellipse id="Oval-2-Copy-23" cx="43.3521127" cy="53.8114754" rx="1" ry="1"></ellipse>
                    <ellipse id="Oval-2-Copy-22" cx="54.056338" cy="53.8114754" rx="1" ry="1"></ellipse>
                    <ellipse id="Oval-2-Copy-21" cx="64.7605634" cy="53.8114754" rx="1" ry="1"></ellipse>
                    <ellipse id="Oval-2-Copy-20" cx="75.4647887" cy="53.8114754" rx="1" ry="1"></ellipse>
                    <ellipse id="Oval-2-Copy-19" cx="75.4647887" cy="64.4672131" rx="1" ry="1"></ellipse>
                    <ellipse id="Oval-2-Copy-18" cx="64.7605634" cy="64.4672131" rx="1" ry="1"></ellipse>
                    <ellipse id="Oval-2-Copy-17" cx="54.056338" cy="64.4672131" rx="1" ry="1"></ellipse>
                    <ellipse id="Oval-2-Copy-16" cx="43.3521127" cy="64.4672131" rx="1" ry="1"></ellipse>
                    <ellipse id="Oval-2-Copy-55" cx="0.535211268" cy="0.532786885" rx="1" ry="1"></ellipse>
                    <ellipse id="Oval-2-Copy-54" cx="11.2394366" cy="0.532786885" rx="1" ry="1"></ellipse>
                    <ellipse id="Oval-2-Copy-53" cx="21.943662" cy="0.532786885" rx="1" ry="1"></ellipse>
                    <ellipse id="Oval-2-Copy-52" cx="32.6478873" cy="0.532786885" rx="1" ry="1"></ellipse>
                    <ellipse id="Oval-2-Copy-51" cx="32.6478873" cy="11.1885246" rx="1" ry="1"></ellipse>
                    <ellipse id="Oval-2-Copy-50" cx="21.943662" cy="11.1885246" rx="1" ry="1"></ellipse>
                    <ellipse id="Oval-2-Copy-49" cx="11.2394366" cy="11.1885246" rx="1" ry="1"></ellipse>
                    <ellipse id="Oval-2-Copy-48" cx="0.535211268" cy="11.1885246" rx="1" ry="1"></ellipse>
                    <ellipse id="Oval-2-Copy-47" cx="0.535211268" cy="21.8442623" rx="1" ry="1"></ellipse>
                    <ellipse id="Oval-2-Copy-46" cx="11.2394366" cy="21.8442623" rx="1" ry="1"></ellipse>
                    <ellipse id="Oval-2-Copy-45" cx="21.943662" cy="21.8442623" rx="1" ry="1"></ellipse>
                    <ellipse id="Oval-2-Copy-44" cx="32.6478873" cy="21.8442623" rx="1" ry="1"></ellipse>
                    <ellipse id="Oval-2-Copy-43" cx="32.6478873" cy="32.5" rx="1" ry="1"></ellipse>
                    <ellipse id="Oval-2-Copy-42" cx="21.943662" cy="32.5" rx="1" ry="1"></ellipse>
                    <ellipse id="Oval-2-Copy-41" cx="11.2394366" cy="32.5" rx="1" ry="1"></ellipse>
                    <ellipse id="Oval-2-Copy-40" cx="0.535211268" cy="32.5" rx="1" ry="1"></ellipse>
                    <ellipse id="Oval-2-Copy-39" cx="32.6478873" cy="43.1557377" rx="1" ry="1"></ellipse>
                    <ellipse id="Oval-2-Copy-38" cx="21.943662" cy="43.1557377" rx="1" ry="1"></ellipse>
                    <ellipse id="Oval-2-Copy-37" cx="11.2394366" cy="43.1557377" rx="1" ry="1"></ellipse>
                    <ellipse id="Oval-2-Copy-36" cx="0.535211268" cy="43.1557377" rx="1" ry="1"></ellipse>
                    <ellipse id="Oval-2-Copy-35" cx="0.535211268" cy="53.8114754" rx="1" ry="1"></ellipse>
                    <ellipse id="Oval-2-Copy-34" cx="11.2394366" cy="53.8114754" rx="1" ry="1"></ellipse>
                    <ellipse id="Oval-2-Copy-33" cx="21.943662" cy="53.8114754" rx="1" ry="1"></ellipse>
                    <ellipse id="Oval-2-Copy-32" cx="32.6478873" cy="53.8114754" rx="1" ry="1"></ellipse>
                    <ellipse id="Oval-2-Copy-31" cx="32.6478873" cy="64.4672131" rx="1" ry="1"></ellipse>
                    <ellipse id="Oval-2-Copy-30" cx="21.943662" cy="64.4672131" rx="1" ry="1"></ellipse>
                    <ellipse id="Oval-2-Copy-29" cx="11.2394366" cy="64.4672131" rx="1" ry="1"></ellipse>
                    <ellipse id="Oval-2-Copy-28" cx="0.535211268" cy="64.4672131" rx="1" ry="1"></ellipse>
                </g>
                <g id="Group-2-Copy" transform="translate(85.000000, 0.000000)">
                    <ellipse id="Oval-2" cx="43.3521127" cy="0.532786885" rx="1" ry="1"></ellipse>
                    <ellipse id="Oval-2-Copy" cx="54.056338" cy="0.532786885" rx="1" ry="1"></ellipse>
                    <ellipse id="Oval-2-Copy-2" cx="64.7605634" cy="0.532786885" rx="1" ry="1"></ellipse>
                    <ellipse id="Oval-2-Copy-3" cx="75.4647887" cy="0.532786885" rx="1" ry="1"></ellipse>
                    <ellipse id="Oval-2-Copy-4" cx="75.4647887" cy="11.1885246" rx="1" ry="1"></ellipse>
                    <ellipse id="Oval-2-Copy-5" cx="64.7605634" cy="11.1885246" rx="1" ry="1"></ellipse>
                    <ellipse id="Oval-2-Copy-6" cx="54.056338" cy="11.1885246" rx="1" ry="1"></ellipse>
                    <ellipse id="Oval-2-Copy-7" cx="43.3521127" cy="11.1885246" rx="1" ry="1"></ellipse>
                    <ellipse id="Oval-2-Copy-8" cx="43.3521127" cy="21.8442623" rx="1" ry="1"></ellipse>
                    <ellipse id="Oval-2-Copy-9" cx="54.056338" cy="21.8442623" rx="1" ry="1"></ellipse>
                    <ellipse id="Oval-2-Copy-10" cx="64.7605634" cy="21.8442623" rx="1" ry="1"></ellipse>
                    <ellipse id="Oval-2-Copy-11" cx="75.4647887" cy="21.8442623" rx="1" ry="1"></ellipse>
                    <ellipse id="Oval-2-Copy-12" cx="75.4647887" cy="32.5" rx="1" ry="1"></ellipse>
                    <ellipse id="Oval-2-Copy-13" cx="64.7605634" cy="32.5" rx="1" ry="1"></ellipse>
                    <ellipse id="Oval-2-Copy-14" cx="54.056338" cy="32.5" rx="1" ry="1"></ellipse>
                    <ellipse id="Oval-2-Copy-15" cx="43.3521127" cy="32.5" rx="1" ry="1"></ellipse>
                    <ellipse id="Oval-2-Copy-27" cx="75.4647887" cy="43.1557377" rx="1" ry="1"></ellipse>
                    <ellipse id="Oval-2-Copy-26" cx="64.7605634" cy="43.1557377" rx="1" ry="1"></ellipse>
                    <ellipse id="Oval-2-Copy-25" cx="54.056338" cy="43.1557377" rx="1" ry="1"></ellipse>
                    <ellipse id="Oval-2-Copy-24" cx="43.3521127" cy="43.1557377" rx="1" ry="1"></ellipse>
                    <ellipse id="Oval-2-Copy-23" cx="43.3521127" cy="53.8114754" rx="1" ry="1"></ellipse>
                    <ellipse id="Oval-2-Copy-22" cx="54.056338" cy="53.8114754" rx="1" ry="1"></ellipse>
                    <ellipse id="Oval-2-Copy-21" cx="64.7605634" cy="53.8114754" rx="1" ry="1"></ellipse>
                    <ellipse id="Oval-2-Copy-20" cx="75.4647887" cy="53.8114754" rx="1" ry="1"></ellipse>
                    <ellipse id="Oval-2-Copy-19" cx="75.4647887" cy="64.4672131" rx="1" ry="1"></ellipse>
                    <ellipse id="Oval-2-Copy-18" cx="64.7605634" cy="64.4672131" rx="1" ry="1"></ellipse>
                    <ellipse id="Oval-2-Copy-17" cx="54.056338" cy="64.4672131" rx="1" ry="1"></ellipse>
                    <ellipse id="Oval-2-Copy-16" cx="43.3521127" cy="64.4672131" rx="1" ry="1"></ellipse>
                    <ellipse id="Oval-2-Copy-55" cx="0.535211268" cy="0.532786885" rx="1" ry="1"></ellipse>
                    <ellipse id="Oval-2-Copy-54" cx="11.2394366" cy="0.532786885" rx="1" ry="1"></ellipse>
                    <ellipse id="Oval-2-Copy-53" cx="21.943662" cy="0.532786885" rx="1" ry="1"></ellipse>
                    <ellipse id="Oval-2-Copy-52" cx="32.6478873" cy="0.532786885" rx="1" ry="1"></ellipse>
                    <ellipse id="Oval-2-Copy-51" cx="32.6478873" cy="11.1885246" rx="1" ry="1"></ellipse>
                    <ellipse id="Oval-2-Copy-50" cx="21.943662" cy="11.1885246" rx="1" ry="1"></ellipse>
                    <ellipse id="Oval-2-Copy-49" cx="11.2394366" cy="11.1885246" rx="1" ry="1"></ellipse>
                    <ellipse id="Oval-2-Copy-48" cx="0.535211268" cy="11.1885246" rx="1" ry="1"></ellipse>
                    <ellipse id="Oval-2-Copy-47" cx="0.535211268" cy="21.8442623" rx="1" ry="1"></ellipse>
                    <ellipse id="Oval-2-Copy-46" cx="11.2394366" cy="21.8442623" rx="1" ry="1"></ellipse>
                    <ellipse id="Oval-2-Copy-45" cx="21.943662" cy="21.8442623" rx="1" ry="1"></ellipse>
                    <ellipse id="Oval-2-Copy-44" cx="32.6478873" cy="21.8442623" rx="1" ry="1"></ellipse>
                    <ellipse id="Oval-2-Copy-43" cx="32.6478873" cy="32.5" rx="1" ry="1"></ellipse>
                    <ellipse id="Oval-2-Copy-42" cx="21.943662" cy="32.5" rx="1" ry="1"></ellipse>
                    <ellipse id="Oval-2-Copy-41" cx="11.2394366" cy="32.5" rx="1" ry="1"></ellipse>
                    <ellipse id="Oval-2-Copy-40" cx="0.535211268" cy="32.5" rx="1" ry="1"></ellipse>
                    <ellipse id="Oval-2-Copy-39" cx="32.6478873" cy="43.1557377" rx="1" ry="1"></ellipse>
                    <ellipse id="Oval-2-Copy-38" cx="21.943662" cy="43.1557377" rx="1" ry="1"></ellipse>
                    <ellipse id="Oval-2-Copy-37" cx="11.2394366" cy="43.1557377" rx="1" ry="1"></ellipse>
                    <ellipse id="Oval-2-Copy-36" cx="0.535211268" cy="43.1557377" rx="1" ry="1"></ellipse>
                    <ellipse id="Oval-2-Copy-35" cx="0.535211268" cy="53.8114754" rx="1" ry="1"></ellipse>
                    <ellipse id="Oval-2-Copy-34" cx="11.2394366" cy="53.8114754" rx="1" ry="1"></ellipse>
                    <ellipse id="Oval-2-Copy-33" cx="21.943662" cy="53.8114754" rx="1" ry="1"></ellipse>
                    <ellipse id="Oval-2-Copy-32" cx="32.6478873" cy="53.8114754" rx="1" ry="1"></ellipse>
                    <ellipse id="Oval-2-Copy-31" cx="32.6478873" cy="64.4672131" rx="1" ry="1"></ellipse>
                    <ellipse id="Oval-2-Copy-30" cx="21.943662" cy="64.4672131" rx="1" ry="1"></ellipse>
                    <ellipse id="Oval-2-Copy-29" cx="11.2394366" cy="64.4672131" rx="1" ry="1"></ellipse>
                    <ellipse id="Oval-2-Copy-28" cx="0.535211268" cy="64.4672131" rx="1" ry="1"></ellipse>
                </g>
            </g>
        </g>
    </g>
</svg>